{
	"asset":{
		"generator":"Khronos glTF Blender I/O v5.0.21",
		"version":"2.0"
	},
	"extensionsUsed":[
		"KHR_materials_clearcoat",
		"KHR_materials_transmission",
		"KHR_materials_specular",
		"KHR_materials_ior"
	],
	"scene":0,
	"scenes":[
		{
			"name":"Scene",
			"nodes":[
				4,
				7,
				9,
				10,
				11,
				12,
				13,
				14,
				16,
				17,
				18,
				19
			]
		}
	],
	"nodes":[
		{
			"mesh":0,
			"name":"AText",
			"scale":[
				0.034218546003103256,
				0.06366268545389175,
				0.06366268545389175
			],
			"translation":[
				0.03982938453555107,
				0.0009379610419273376,
				-0.005878552794456482
			]
		},
		{
			"mesh":1,
			"name":"BText",
			"scale":[
				0.034218546003103256,
				0.06366268545389175,
				0.06366268545389175
			],
			"translation":[
				0.04614420607686043,
				0.0009379610419273376,
				-0.005878552794456482
			]
		},
		{
			"mesh":2,
			"name":"CText",
			"scale":[
				0.034218546003103256,
				0.06366268545389175,
				0.06366268545389175
			],
			"translation":[
				0.052529603242874146,
				0.0009379610419273376,
				-0.005878552794456482
			]
		},
		{
			"mesh":3,
			"name":"TuningHandle",
			"translation":[
				0.051912061870098114,
				0.0009159371256828308,
				0.0003469735383987427
			]
		},
		{
			"children":[
				0,
				1,
				2,
				3
			],
			"mesh":4,
			"name":"PickupBaseAttachment",
			"translation":[
				-0.08078640699386597,
				0.06680694222450256,
				-0.14660978317260742
			]
		},
		{
			"mesh":5,
			"name":"Fastening.001",
			"rotation":[
				0.6263284683227539,
				0.32819586992263794,
				-0.6263285875320435,
				0.3281960189342499
			]
		},
		{
			"children":[
				5
			],
			"mesh":6,
			"name":"DustCover",
			"rotation":[
				0,
				0,
				0.09950629621744156,
				0.9950370192527771
			],
			"scale":[
				-16.42725372314453,
				-16.42725372314453,
				-16.42725372314453
			]
		},
		{
			"children":[
				6
			],
			"name":"AcrylicCover",
			"rotation":[
				0,
				0,
				0.4310259222984314,
				0.9023395776748657
			],
			"scale":[
				-0.060874443501234055,
				-0.060874443501234055,
				-0.06087444722652435
			],
			"translation":[
				-0.16858546435832977,
				0.05757066607475281,
				-2.635084092617035e-05
			]
		},
		{
			"mesh":7,
			"name":"Base",
			"scale":[
				0.9800000190734863,
				0.0378202386200428,
				1
			],
			"translation":[
				-0.16538383066654205,
				0.00025155767798423767,
				0.0005122646689414978
			]
		},
		{
			"children":[
				8
			],
			"name":"Body",
			"translation":[
				0,
				0.05278478562831879,
				0
			]
		},
		{
			"mesh":8,
			"name":"Fastening",
			"translation":[
				-0.16885854303836823,
				0.05250585451722145,
				0
			]
		},
		{
			"mesh":9,
			"name":"Components",
			"scale":[
				0.03878474235534668,
				0.03878474235534668,
				0.051228560507297516
			],
			"translation":[
				-0.13280238211154938,
				0.02994963712990284,
				-0.057611025869846344
			]
		},
		{
			"mesh":10,
			"name":"Feet",
			"scale":[
				0.023878443986177444,
				0.023878443986177444,
				0.023878443986177444
			]
		},
		{
			"mesh":11,
			"name":"VinylDisk",
			"scale":[
				0.13997787237167358,
				0.13997787237167358,
				0.13997787237167358
			],
			"translation":[
				0.0018077557906508446,
				0.08622843027114868,
				0.0313534252345562
			]
		},
		{
			"mesh":12,
			"name":"VinylBase",
			"scale":[
				0.15299886465072632,
				0.15299886465072632,
				0.15299886465072632
			],
			"translation":[
				0.0019211990293115377,
				0.07462003827095032,
				0.0313483402132988
			]
		},
		{
			"mesh":13,
			"name":"VolumeText",
			"scale":[
				5.16493558883667,
				9.609224319458008,
				9.609224319458008
			],
			"translation":[
				1.619004249572754,
				-1.0427780151367188,
				0.18390274047851562
			]
		},
		{
			"children":[
				15
			],
			"mesh":14,
			"name":"VolumeControl",
			"scale":[
				0.007778930943459272,
				0.007778930943459272,
				0.007778930943459272
			],
			"translation":[
				0.10395201295614243,
				0.07382150739431381,
				-0.17078688740730286
			]
		},
		{
			"mesh":15,
			"name":"Thorn",
			"scale":[
				0.0036166065838187933,
				0.018139390274882317,
				0.0036166065838187933
			],
			"translation":[
				0.0019211990293115377,
				0.08381304144859314,
				0.0313483402132988
			]
		},
		{
			"mesh":16,
			"name":"Pickup",
			"rotation":[
				-0.00823206640779972,
				-0.007916164584457874,
				-0.7006970047950745,
				0.7133676409721375
			],
			"translation":[
				-0.11721306294202805,
				0.07908400148153305,
				-0.1305013746023178
			]
		},
		{
			"mesh":17,
			"name":"LencoText",
			"scale":[
				0.09536918997764587,
				0.13997787237167358,
				0.13997787237167358
			],
			"translation":[
				0.14931419491767883,
				0.06570981442928314,
				-0.17173440754413605
			]
		}
	],
	"animations":[
		{
			"channels":[
				{
					"sampler":0,
					"target":{
						"node":6,
						"path":"rotation"
					}
				}
			],
			"name":"AbrirTampa",
			"samplers":[
				{
					"input":82,
					"interpolation":"LINEAR",
					"output":83
				}
			]
		},
		{
			"channels":[
				{
					"sampler":0,
					"target":{
						"node":6,
						"path":"rotation"
					}
				}
			],
			"name":"FecharTampa",
			"samplers":[
				{
					"input":82,
					"interpolation":"LINEAR",
					"output":84
				}
			]
		},
		{
			"channels":[
				{
					"sampler":0,
					"target":{
						"node":13,
						"path":"rotation"
					}
				}
			],
			"name":"GirarDisco",
			"samplers":[
				{
					"input":82,
					"interpolation":"LINEAR",
					"output":85
				}
			]
		},
		{
			"channels":[
				{
					"sampler":0,
					"target":{
						"node":18,
						"path":"rotation"
					}
				}
			],
			"name":"ColocarAgulha",
			"samplers":[
				{
					"input":82,
					"interpolation":"LINEAR",
					"output":86
				}
			]
		},
		{
			"channels":[
				{
					"sampler":0,
					"target":{
						"node":18,
						"path":"rotation"
					}
				}
			],
			"name":"RetirarAgulha",
			"samplers":[
				{
					"input":82,
					"interpolation":"LINEAR",
					"output":87
				}
			]
		}
	],
	"materials":[
		{
			"alphaMode":"BLEND",
			"doubleSided":true,
			"name":"AText",
			"pbrMetallicRoughness":{
				"baseColorTexture":{
					"index":0
				},
				"metallicFactor":0,
				"roughnessFactor":0.5
			}
		},
		{
			"alphaMode":"BLEND",
			"doubleSided":true,
			"name":"BText",
			"pbrMetallicRoughness":{
				"baseColorTexture":{
					"index":1
				},
				"metallicFactor":0,
				"roughnessFactor":0.5
			}
		},
		{
			"alphaMode":"BLEND",
			"doubleSided":true,
			"name":"CText",
			"pbrMetallicRoughness":{
				"baseColorTexture":{
					"index":2
				},
				"metallicFactor":0,
				"roughnessFactor":0.5
			}
		},
		{
			"doubleSided":true,
			"extensions":{
				"KHR_materials_clearcoat":{
					"clearcoatRoughnessFactor":0
				},
				"KHR_materials_specular":{
					"specularColorFactor":[
						1.100000023841858,
						1.100000023841858,
						1.100000023841858
					]
				},
				"KHR_materials_ior":{
					"ior":1.4500000476837158
				}
			},
			"name":"BlackMattePlastic",
			"pbrMetallicRoughness":{
				"baseColorFactor":[
					0.005604584235697985,
					0.005604584235697985,
					0.005604584235697985,
					1
				],
				"metallicFactor":0.6954545378684998,
				"roughnessFactor":0.6499999761581421
			}
		},
		{
			"doubleSided":true,
			"extensions":{
				"KHR_materials_clearcoat":{
					"clearcoatFactor":0.10000000149011612,
					"clearcoatRoughnessFactor":0.15000000596046448
				},
				"KHR_materials_specular":{
					"specularColorFactor":[
						1.100000023841858,
						1.100000023841858,
						1.100000023841858
					]
				},
				"KHR_materials_ior":{
					"ior":1.4500000476837158
				}
			},
			"name":"BlackGlossyPlasticBaked",
			"normalTexture":{
				"index":3
			},
			"pbrMetallicRoughness":{
				"baseColorFactor":[
					0.005604584235697985,
					0.005604584235697985,
					0.005604584235697985,
					1
				],
				"metallicFactor":0
			}
		},
		{
			"doubleSided":true,
			"name":"Steel.001",
			"pbrMetallicRoughness":{
				"baseColorFactor":[
					0.382510244846344,
					0.382510244846344,
					0.382510244846344,
					1
				],
				"roughnessFactor":0.3466453552246094
			}
		},
		{
			"doubleSided":true,
			"extensions":{
				"KHR_materials_transmission":{
					"transmissionFactor":1
				},
				"KHR_materials_ior":{
					"ior":1.4500000476837158
				}
			},
			"name":"Glass",
			"pbrMetallicRoughness":{
				"baseColorFactor":[
					0.6724390387535095,
					0.5840790867805481,
					0.5332766771316528,
					1
				],
				"metallicFactor":0,
				"roughnessFactor":0.08454500138759613
			}
		},
		{
			"doubleSided":true,
			"extensions":{
				"KHR_materials_specular":{
					"specularFactor":0.4000000059604645
				},
				"KHR_materials_ior":{
					"ior":1.4500000476837158
				}
			},
			"name":"Textura_1",
			"pbrMetallicRoughness":{
				"baseColorTexture":{
					"index":4
				},
				"metallicFactor":0
			}
		},
		{
			"doubleSided":true,
			"name":"Components",
			"pbrMetallicRoughness":{
				"baseColorTexture":{
					"index":5
				},
				"metallicFactor":0,
				"roughnessFactor":0.5
			}
		},
		{
			"alphaMode":"BLEND",
			"doubleSided":true,
			"name":"vynil_baked",
			"pbrMetallicRoughness":{
				"baseColorTexture":{
					"index":6
				},
				"metallicFactor":0
			}
		},
		{
			"alphaMode":"BLEND",
			"doubleSided":true,
			"name":"Volume",
			"pbrMetallicRoughness":{
				"baseColorTexture":{
					"index":7
				},
				"metallicFactor":0,
				"roughnessFactor":0.5
			}
		},
		{
			"doubleSided":true,
			"name":"Steel",
			"pbrMetallicRoughness":{
				"baseColorFactor":[
					0.382510244846344,
					0.382510244846344,
					0.382510244846344,
					1
				],
				"roughnessFactor":0.3466453552246094
			}
		},
		{
			"doubleSided":true,
			"extensions":{
				"KHR_materials_clearcoat":{
					"clearcoatRoughnessFactor":0
				},
				"KHR_materials_specular":{
					"specularColorFactor":[
						1.100000023841858,
						1.100000023841858,
						1.100000023841858
					]
				},
				"KHR_materials_ior":{
					"ior":1.4500000476837158
				}
			},
			"name":"RedPlastic",
			"pbrMetallicRoughness":{
				"baseColorFactor":[
					0.8140411972999573,
					0.02004322223365307,
					0.007456337567418814,
					1
				],
				"metallicFactor":0,
				"roughnessFactor":0.6499999761581421
			}
		},
		{
			"doubleSided":true,
			"name":"SteelScrew",
			"normalTexture":{
				"index":8
			},
			"pbrMetallicRoughness":{
				"baseColorFactor":[
					0.382510244846344,
					0.382510244846344,
					0.382510244846344,
					1
				],
				"roughnessFactor":0.3466453552246094
			}
		},
		{
			"alphaMode":"BLEND",
			"doubleSided":true,
			"name":"Lenco",
			"pbrMetallicRoughness":{
				"baseColorTexture":{
					"index":9
				},
				"metallicFactor":0,
				"roughnessFactor":0.5
			}
		}
	],
	"meshes":[
		{
			"name":"Plane.004",
			"primitives":[
				{
					"attributes":{
						"POSITION":0,
						"NORMAL":1,
						"TEXCOORD_0":2
					},
					"indices":3,
					"material":0
				}
			]
		},
		{
			"name":"Plane.005",
			"primitives":[
				{
					"attributes":{
						"POSITION":4,
						"NORMAL":5,
						"TEXCOORD_0":6
					},
					"indices":3,
					"material":1
				}
			]
		},
		{
			"name":"Plane.006",
			"primitives":[
				{
					"attributes":{
						"POSITION":7,
						"NORMAL":8,
						"TEXCOORD_0":9
					},
					"indices":3,
					"material":2
				}
			]
		},
		{
			"name":"Cube.006",
			"primitives":[
				{
					"attributes":{
						"POSITION":10,
						"NORMAL":11,
						"TEXCOORD_0":12
					},
					"indices":13,
					"material":3
				}
			]
		},
		{
			"name":"Cube.001",
			"primitives":[
				{
					"attributes":{
						"POSITION":14,
						"NORMAL":15,
						"TEXCOORD_0":16
					},
					"indices":17,
					"material":4
				}
			]
		},
		{
			"name":"BezierCurve.001",
			"primitives":[
				{
					"attributes":{
						"POSITION":18,
						"NORMAL":19,
						"TEXCOORD_0":20
					},
					"indices":21,
					"material":5
				}
			]
		},
		{
			"name":"Cube.007",
			"primitives":[
				{
					"attributes":{
						"POSITION":22,
						"NORMAL":23,
						"TEXCOORD_0":24
					},
					"indices":25,
					"material":6
				}
			]
		},
		{
			"name":"Cube.017",
			"primitives":[
				{
					"attributes":{
						"POSITION":26,
						"NORMAL":27,
						"TEXCOORD_0":28
					},
					"indices":29,
					"material":7
				}
			]
		},
		{
			"name":"Cube.003",
			"primitives":[
				{
					"attributes":{
						"POSITION":30,
						"NORMAL":31,
						"TEXCOORD_0":32
					},
					"indices":33,
					"material":4
				}
			]
		},
		{
			"name":"Cube.014",
			"primitives":[
				{
					"attributes":{
						"POSITION":34,
						"NORMAL":35,
						"TEXCOORD_0":36
					},
					"indices":3,
					"material":8
				},
				{
					"attributes":{
						"POSITION":37,
						"NORMAL":38,
						"TEXCOORD_0":39
					},
					"indices":40,
					"material":3
				}
			]
		},
		{
			"name":"Cylinder",
			"primitives":[
				{
					"attributes":{
						"POSITION":41,
						"NORMAL":42,
						"TEXCOORD_0":43
					},
					"indices":44,
					"material":3
				}
			]
		},
		{
			"name":"Plane",
			"primitives":[
				{
					"attributes":{
						"POSITION":45,
						"NORMAL":46,
						"TEXCOORD_0":47
					},
					"indices":3,
					"material":9
				}
			]
		},
		{
			"name":"Cylinder.001",
			"primitives":[
				{
					"attributes":{
						"POSITION":48,
						"NORMAL":49,
						"TEXCOORD_0":50
					},
					"indices":51,
					"material":5
				}
			]
		},
		{
			"name":"Plane.003",
			"primitives":[
				{
					"attributes":{
						"POSITION":52,
						"NORMAL":53,
						"TEXCOORD_0":54
					},
					"indices":3,
					"material":10
				}
			]
		},
		{
			"name":"Cylinder.002",
			"primitives":[
				{
					"attributes":{
						"POSITION":55,
						"NORMAL":56,
						"TEXCOORD_0":57
					},
					"indices":58,
					"material":5
				}
			]
		},
		{
			"name":"Cylinder.003",
			"primitives":[
				{
					"attributes":{
						"POSITION":59,
						"NORMAL":60,
						"TEXCOORD_0":61
					},
					"indices":62,
					"material":5
				}
			]
		},
		{
			"name":"Cylinder.004",
			"primitives":[
				{
					"attributes":{
						"POSITION":63,
						"NORMAL":64,
						"TEXCOORD_0":65
					},
					"indices":66,
					"material":11
				},
				{
					"attributes":{
						"POSITION":67,
						"NORMAL":68,
						"TEXCOORD_0":69
					},
					"indices":70,
					"material":3
				},
				{
					"attributes":{
						"POSITION":71,
						"NORMAL":72,
						"TEXCOORD_0":73
					},
					"indices":74,
					"material":12
				},
				{
					"attributes":{
						"POSITION":75,
						"NORMAL":76,
						"TEXCOORD_0":77
					},
					"indices":78,
					"material":13
				}
			]
		},
		{
			"name":"Plane.002",
			"primitives":[
				{
					"attributes":{
						"POSITION":79,
						"NORMAL":80,
						"TEXCOORD_0":81
					},
					"indices":3,
					"material":14
				}
			]
		}
	],
	"textures":[
		{
			"sampler":0,
			"source":0
		},
		{
			"sampler":0,
			"source":1
		},
		{
			"sampler":0,
			"source":2
		},
		{
			"sampler":0,
			"source":3
		},
		{
			"sampler":0,
			"source":4
		},
		{
			"sampler":0,
			"source":5
		},
		{
			"sampler":0,
			"source":6
		},
		{
			"sampler":0,
			"source":7
		},
		{
			"sampler":0,
			"source":3
		},
		{
			"sampler":0,
			"source":8
		}
	],
	"images":[
		{
			"mimeType":"image/png",
			"name":"AText",
			"uri":"AText.png"
		},
		{
			"mimeType":"image/png",
			"name":"BText",
			"uri":"BText.png"
		},
		{
			"mimeType":"image/png",
			"name":"CText",
			"uri":"CText.png"
		},
		{
			"mimeType":"image/png",
			"name":"fastening_normalmap",
			"uri":"fastening_normalmap.png"
		},
		{
			"mimeType":"image/jpeg",
			"name":"Textura_1",
			"uri":"Textura_1.jpg"
		},
		{
			"mimeType":"image/png",
			"name":"image (1)",
			"uri":"image%20%281%29.png"
		},
		{
			"mimeType":"image/png",
			"name":"vynil_rgba",
			"uri":"vynil_rgba.png"
		},
		{
			"mimeType":"image/png",
			"name":"Volume",
			"uri":"Volume.png"
		},
		{
			"mimeType":"image/png",
			"name":"Lenco",
			"uri":"Lenco.png"
		}
	],
	"accessors":[
		{
			"bufferView":0,
			"componentType":5126,
			"count":4,
			"max":[
				0.06249439716339111,
				0,
				0.05086322873830795
			],
			"min":[
				-0.06249439716339111,
				0,
				-0.05086322873830795
			],
			"type":"VEC3"
		},
		{
			"bufferView":1,
			"componentType":5126,
			"count":4,
			"type":"VEC3"
		},
		{
			"bufferView":2,
			"componentType":5126,
			"count":4,
			"type":"VEC2"
		},
		{
			"bufferView":3,
			"componentType":5123,
			"count":6,
			"type":"SCALAR"
		},
		{
			"bufferView":4,
			"componentType":5126,
			"count":4,
			"max":[
				0.06249439716339111,
				0,
				0.05086322873830795
			],
			"min":[
				-0.06249439716339111,
				0,
				-0.05086322873830795
			],
			"type":"VEC3"
		},
		{
			"bufferView":5,
			"componentType":5126,
			"count":4,
			"type":"VEC3"
		},
		{
			"bufferView":6,
			"componentType":5126,
			"count":4,
			"type":"VEC2"
		},
		{
			"bufferView":7,
			"componentType":5126,
			"count":4,
			"max":[
				0.06249439716339111,
				0,
				0.05086322873830795
			],
			"min":[
				-0.06249439716339111,
				0,
				-0.05086322873830795
			],
			"type":"VEC3"
		},
		{
			"bufferView":8,
			"componentType":5126,
			"count":4,
			"type":"VEC3"
		},
		{
			"bufferView":9,
			"componentType":5126,
			"count":4,
			"type":"VEC2"
		},
		{
			"bufferView":10,
			"componentType":5126,
			"count":158,
			"max":[
				0.0033708070404827595,
				0.0032791467383503914,
				0.0015149471582844853
			],
			"min":[
				-0.0033708070404827595,
				-0.001549357664771378,
				-0.0015149471582844853
			],
			"type":"VEC3"
		},
		{
			"bufferView":11,
			"componentType":5126,
			"count":158,
			"type":"VEC3"
		},
		{
			"bufferView":12,
			"componentType":5126,
			"count":158,
			"type":"VEC2"
		},
		{
			"bufferView":13,
			"componentType":5123,
			"count":444,
			"type":"SCALAR"
		},
		{
			"bufferView":14,
			"componentType":5126,
			"count":2228,
			"max":[
				0.07880665361881256,
				0.04149838164448738,
				0.053459249436855316
			],
			"min":[
				-0.0671718642115593,
				-0.001500000013038516,
				-0.012407748959958553
			],
			"type":"VEC3"
		},
		{
			"bufferView":15,
			"componentType":5126,
			"count":2228,
			"type":"VEC3"
		},
		{
			"bufferView":16,
			"componentType":5126,
			"count":2228,
			"type":"VEC2"
		},
		{
			"bufferView":17,
			"componentType":5123,
			"count":8250,
			"type":"SCALAR"
		},
		{
			"bufferView":18,
			"componentType":5126,
			"count":448,
			"max":[
				0.1552990823984146,
				0.023777402937412262,
				0.0056089856661856174
			],
			"min":[
				-0.15535180270671844,
				-0.0018064654432237148,
				-0.0017931798938661814
			],
			"type":"VEC3"
		},
		{
			"bufferView":19,
			"componentType":5126,
			"count":448,
			"type":"VEC3"
		},
		{
			"bufferView":20,
			"componentType":5126,
			"count":448,
			"type":"VEC2"
		},
		{
			"bufferView":21,
			"componentType":5123,
			"count":2412,
			"type":"SCALAR"
		},
		{
			"bufferView":22,
			"componentType":5126,
			"count":2033,
			"max":[
				0.33256101608276367,
				0.0633702352643013,
				0.20376235246658325
			],
			"min":[
				-0.0021372586488723755,
				0.00761207053437829,
				-0.20411349833011627
			],
			"type":"VEC3"
		},
		{
			"bufferView":23,
			"componentType":5126,
			"count":2033,
			"type":"VEC3"
		},
		{
			"bufferView":24,
			"componentType":5126,
			"count":2033,
			"type":"VEC2"
		},
		{
			"bufferView":25,
			"componentType":5123,
			"count":7428,
			"type":"SCALAR"
		},
		{
			"bufferView":26,
			"componentType":5126,
			"count":256,
			"max":[
				0.33716484904289246,
				0.3321499824523926,
				0.20439326763153076
			],
			"min":[
				0,
				-0.332149863243103,
				-0.20541781187057495
			],
			"type":"VEC3"
		},
		{
			"bufferView":27,
			"componentType":5126,
			"count":256,
			"type":"VEC3"
		},
		{
			"bufferView":28,
			"componentType":5126,
			"count":256,
			"type":"VEC2"
		},
		{
			"bufferView":29,
			"componentType":5123,
			"count":660,
			"type":"SCALAR"
		},
		{
			"bufferView":30,
			"componentType":5126,
			"count":736,
			"max":[
				0.0035478330682963133,
				0.008594663813710213,
				0.14421957731246948
			],
			"min":[
				-0.0035478330682963133,
				-0.008594663813710213,
				-0.14421957731246948
			],
			"type":"VEC3"
		},
		{
			"bufferView":31,
			"componentType":5126,
			"count":736,
			"type":"VEC3"
		},
		{
			"bufferView":32,
			"componentType":5126,
			"count":736,
			"type":"VEC2"
		},
		{
			"bufferView":33,
			"componentType":5123,
			"count":1800,
			"type":"SCALAR"
		},
		{
			"bufferView":34,
			"componentType":5126,
			"count":4,
			"max":[
				-0.8163493871688843,
				0.2773601710796356,
				0.8247788548469543
			],
			"min":[
				-0.8163493871688843,
				-0.18961955606937408,
				-1.0042295455932617
			],
			"type":"VEC3"
		},
		{
			"bufferView":35,
			"componentType":5126,
			"count":4,
			"type":"VEC3"
		},
		{
			"bufferView":36,
			"componentType":5126,
			"count":4,
			"type":"VEC2"
		},
		{
			"bufferView":37,
			"componentType":5126,
			"count":20,
			"max":[
				0.8096060156822205,
				0.2773602604866028,
				0.8247789740562439
			],
			"min":[
				-0.816349983215332,
				-0.1896195262670517,
				-1.0042296648025513
			],
			"type":"VEC3"
		},
		{
			"bufferView":38,
			"componentType":5126,
			"count":20,
			"type":"VEC3"
		},
		{
			"bufferView":39,
			"componentType":5126,
			"count":20,
			"type":"VEC2"
		},
		{
			"bufferView":40,
			"componentType":5123,
			"count":30,
			"type":"SCALAR"
		},
		{
			"bufferView":41,
			"componentType":5126,
			"count":520,
			"max":[
				6.048191547393799,
				1.6953861713409424,
				7.755586624145508
			],
			"min":[
				-6.048191547393799,
				0.011319160461425781,
				-7.755586624145508
			],
			"type":"VEC3"
		},
		{
			"bufferView":42,
			"componentType":5126,
			"count":520,
			"type":"VEC3"
		},
		{
			"bufferView":43,
			"componentType":5126,
			"count":520,
			"type":"VEC2"
		},
		{
			"bufferView":44,
			"componentType":5123,
			"count":1488,
			"type":"SCALAR"
		},
		{
			"bufferView":45,
			"componentType":5126,
			"count":4,
			"max":[
				1,
				0,
				1
			],
			"min":[
				-1,
				0,
				-1
			],
			"type":"VEC3"
		},
		{
			"bufferView":46,
			"componentType":5126,
			"count":4,
			"type":"VEC3"
		},
		{
			"bufferView":47,
			"componentType":5126,
			"count":4,
			"type":"VEC2"
		},
		{
			"bufferView":48,
			"componentType":5126,
			"count":130,
			"max":[
				1,
				0.06753212213516235,
				1
			],
			"min":[
				-1,
				-0.05952346324920654,
				-1
			],
			"type":"VEC3"
		},
		{
			"bufferView":49,
			"componentType":5126,
			"count":130,
			"type":"VEC3"
		},
		{
			"bufferView":50,
			"componentType":5126,
			"count":130,
			"type":"VEC2"
		},
		{
			"bufferView":51,
			"componentType":5123,
			"count":372,
			"type":"SCALAR"
		},
		{
			"bufferView":52,
			"componentType":5126,
			"count":4,
			"max":[
				0.06249439716339111,
				0,
				0.1401035487651825
			],
			"min":[
				-0.06249439716339111,
				0,
				-0.17266681790351868
			],
			"type":"VEC3"
		},
		{
			"bufferView":53,
			"componentType":5126,
			"count":4,
			"type":"VEC3"
		},
		{
			"bufferView":54,
			"componentType":5126,
			"count":4,
			"type":"VEC2"
		},
		{
			"bufferView":55,
			"componentType":5126,
			"count":98,
			"max":[
				1,
				1,
				1
			],
			"min":[
				-1,
				-1,
				-1
			],
			"type":"VEC3"
		},
		{
			"bufferView":56,
			"componentType":5126,
			"count":98,
			"type":"VEC3"
		},
		{
			"bufferView":57,
			"componentType":5126,
			"count":98,
			"type":"VEC2"
		},
		{
			"bufferView":58,
			"componentType":5123,
			"count":282,
			"type":"SCALAR"
		},
		{
			"bufferView":59,
			"componentType":5126,
			"count":84,
			"max":[
				1,
				0.691032886505127,
				1
			],
			"min":[
				-1,
				-1,
				-1
			],
			"type":"VEC3"
		},
		{
			"bufferView":60,
			"componentType":5126,
			"count":84,
			"type":"VEC3"
		},
		{
			"bufferView":61,
			"componentType":5126,
			"count":84,
			"type":"VEC2"
		},
		{
			"bufferView":62,
			"componentType":5123,
			"count":234,
			"type":"SCALAR"
		},
		{
			"bufferView":63,
			"componentType":5126,
			"count":887,
			"max":[
				-0.005206158384680748,
				0.2042057365179062,
				0.015877502039074898
			],
			"min":[
				-0.0354403480887413,
				-0.0347333624958992,
				-0.014356689527630806
			],
			"type":"VEC3"
		},
		{
			"bufferView":64,
			"componentType":5126,
			"count":887,
			"type":"VEC3"
		},
		{
			"bufferView":65,
			"componentType":5126,
			"count":887,
			"type":"VEC2"
		},
		{
			"bufferView":66,
			"componentType":5123,
			"count":2310,
			"type":"SCALAR"
		},
		{
			"bufferView":67,
			"componentType":5126,
			"count":3011,
			"max":[
				0.003253081813454628,
				0.21275165677070618,
				0.019120939075946808
			],
			"min":[
				-0.02976636402308941,
				-0.021304242312908173,
				-0.01331310160458088
			],
			"type":"VEC3"
		},
		{
			"bufferView":68,
			"componentType":5126,
			"count":3011,
			"type":"VEC3"
		},
		{
			"bufferView":69,
			"componentType":5126,
			"count":3011,
			"type":"VEC2"
		},
		{
			"bufferView":70,
			"componentType":5123,
			"count":8370,
			"type":"SCALAR"
		},
		{
			"bufferView":71,
			"componentType":5126,
			"count":341,
			"max":[
				-0.012976864352822304,
				0.20782455801963806,
				0.015233326703310013
			],
			"min":[
				-0.017501726746559143,
				0.18431560695171356,
				0.0021747048012912273
			],
			"type":"VEC3"
		},
		{
			"bufferView":72,
			"componentType":5126,
			"count":341,
			"type":"VEC3"
		},
		{
			"bufferView":73,
			"componentType":5126,
			"count":341,
			"type":"VEC2"
		},
		{
			"bufferView":74,
			"componentType":5123,
			"count":714,
			"type":"SCALAR"
		},
		{
			"bufferView":75,
			"componentType":5126,
			"count":24,
			"max":[
				-0.02976636402308941,
				0.00111520872451365,
				0.003024756908416748
			],
			"min":[
				-0.02976636402308941,
				-0.0035245451144874096,
				-0.0016149959992617369
			],
			"type":"VEC3"
		},
		{
			"bufferView":76,
			"componentType":5126,
			"count":24,
			"type":"VEC3"
		},
		{
			"bufferView":77,
			"componentType":5126,
			"count":24,
			"type":"VEC2"
		},
		{
			"bufferView":78,
			"componentType":5123,
			"count":66,
			"type":"SCALAR"
		},
		{
			"bufferView":79,
			"componentType":5126,
			"count":4,
			"max":[
				0.06249439716339111,
				0,
				0.1401035487651825
			],
			"min":[
				-0.06249439716339111,
				0,
				-0.17266681790351868
			],
			"type":"VEC3"
		},
		{
			"bufferView":80,
			"componentType":5126,
			"count":4,
			"type":"VEC3"
		},
		{
			"bufferView":81,
			"componentType":5126,
			"count":4,
			"type":"VEC2"
		},
		{
			"bufferView":82,
			"componentType":5126,
			"count":100,
			"max":[
				3.330003174547599
			],
			"min":[
				0.033300031745475994
			],
			"type":"SCALAR"
		},
		{
			"bufferView":83,
			"componentType":5126,
			"count":100,
			"type":"VEC4"
		},
		{
			"bufferView":84,
			"componentType":5126,
			"count":100,
			"type":"VEC4"
		},
		{
			"bufferView":85,
			"componentType":5126,
			"count":100,
			"type":"VEC4"
		},
		{
			"bufferView":86,
			"componentType":5126,
			"count":100,
			"type":"VEC4"
		},
		{
			"bufferView":87,
			"componentType":5126,
			"count":100,
			"type":"VEC4"
		}
	],
	"bufferViews":[
		{
			"buffer":0,
			"byteLength":48,
			"byteOffset":0,
			"target":34962
		},
		{
			"buffer":0,
			"byteLength":48,
			"byteOffset":48,
			"target":34962
		},
		{
			"buffer":0,
			"byteLength":32,
			"byteOffset":96,
			"target":34962
		},
		{
			"buffer":0,
			"byteLength":12,
			"byteOffset":128,
			"target":34963
		},
		{
			"buffer":0,
			"byteLength":48,
			"byteOffset":140,
			"target":34962
		},
		{
			"buffer":0,
			"byteLength":48,
			"byteOffset":188,
			"target":34962
		},
		{
			"buffer":0,
			"byteLength":32,
			"byteOffset":236,
			"target":34962
		},
		{
			"buffer":0,
			"byteLength":48,
			"byteOffset":268,
			"target":34962
		},
		{
			"buffer":0,
			"byteLength":48,
			"byteOffset":316,
			"target":34962
		},
		{
			"buffer":0,
			"byteLength":32,
			"byteOffset":364,
			"target":34962
		},
		{
			"buffer":0,
			"byteLength":1896,
			"byteOffset":396,
			"target":34962
		},
		{
			"buffer":0,
			"byteLength":1896,
			"byteOffset":2292,
			"target":34962
		},
		{
			"buffer":0,
			"byteLength":1264,
			"byteOffset":4188,
			"target":34962
		},
		{
			"buffer":0,
			"byteLength":888,
			"byteOffset":5452,
			"target":34963
		},
		{
			"buffer":0,
			"byteLength":26736,
			"byteOffset":6340,
			"target":34962
		},
		{
			"buffer":0,
			"byteLength":26736,
			"byteOffset":33076,
			"target":34962
		},
		{
			"buffer":0,
			"byteLength":17824,
			"byteOffset":59812,
			"target":34962
		},
		{
			"buffer":0,
			"byteLength":16500,
			"byteOffset":77636,
			"target":34963
		},
		{
			"buffer":0,
			"byteLength":5376,
			"byteOffset":94136,
			"target":34962
		},
		{
			"buffer":0,
			"byteLength":5376,
			"byteOffset":99512,
			"target":34962
		},
		{
			"buffer":0,
			"byteLength":3584,
			"byteOffset":104888,
			"target":34962
		},
		{
			"buffer":0,
			"byteLength":4824,
			"byteOffset":108472,
			"target":34963
		},
		{
			"buffer":0,
			"byteLength":24396,
			"byteOffset":113296,
			"target":34962
		},
		{
			"buffer":0,
			"byteLength":24396,
			"byteOffset":137692,
			"target":34962
		},
		{
			"buffer":0,
			"byteLength":16264,
			"byteOffset":162088,
			"target":34962
		},
		{
			"buffer":0,
			"byteLength":14856,
			"byteOffset":178352,
			"target":34963
		},
		{
			"buffer":0,
			"byteLength":3072,
			"byteOffset":193208,
			"target":34962
		},
		{
			"buffer":0,
			"byteLength":3072,
			"byteOffset":196280,
			"target":34962
		},
		{
			"buffer":0,
			"byteLength":2048,
			"byteOffset":199352,
			"target":34962
		},
		{
			"buffer":0,
			"byteLength":1320,
			"byteOffset":201400,
			"target":34963
		},
		{
			"buffer":0,
			"byteLength":8832,
			"byteOffset":202720,
			"target":34962
		},
		{
			"buffer":0,
			"byteLength":8832,
			"byteOffset":211552,
			"target":34962
		},
		{
			"buffer":0,
			"byteLength":5888,
			"byteOffset":220384,
			"target":34962
		},
		{
			"buffer":0,
			"byteLength":3600,
			"byteOffset":226272,
			"target":34963
		},
		{
			"buffer":0,
			"byteLength":48,
			"byteOffset":229872,
			"target":34962
		},
		{
			"buffer":0,
			"byteLength":48,
			"byteOffset":229920,
			"target":34962
		},
		{
			"buffer":0,
			"byteLength":32,
			"byteOffset":229968,
			"target":34962
		},
		{
			"buffer":0,
			"byteLength":240,
			"byteOffset":230000,
			"target":34962
		},
		{
			"buffer":0,
			"byteLength":240,
			"byteOffset":230240,
			"target":34962
		},
		{
			"buffer":0,
			"byteLength":160,
			"byteOffset":230480,
			"target":34962
		},
		{
			"buffer":0,
			"byteLength":60,
			"byteOffset":230640,
			"target":34963
		},
		{
			"buffer":0,
			"byteLength":6240,
			"byteOffset":230700,
			"target":34962
		},
		{
			"buffer":0,
			"byteLength":6240,
			"byteOffset":236940,
			"target":34962
		},
		{
			"buffer":0,
			"byteLength":4160,
			"byteOffset":243180,
			"target":34962
		},
		{
			"buffer":0,
			"byteLength":2976,
			"byteOffset":247340,
			"target":34963
		},
		{
			"buffer":0,
			"byteLength":48,
			"byteOffset":250316,
			"target":34962
		},
		{
			"buffer":0,
			"byteLength":48,
			"byteOffset":250364,
			"target":34962
		},
		{
			"buffer":0,
			"byteLength":32,
			"byteOffset":250412,
			"target":34962
		},
		{
			"buffer":0,
			"byteLength":1560,
			"byteOffset":250444,
			"target":34962
		},
		{
			"buffer":0,
			"byteLength":1560,
			"byteOffset":252004,
			"target":34962
		},
		{
			"buffer":0,
			"byteLength":1040,
			"byteOffset":253564,
			"target":34962
		},
		{
			"buffer":0,
			"byteLength":744,
			"byteOffset":254604,
			"target":34963
		},
		{
			"buffer":0,
			"byteLength":48,
			"byteOffset":255348,
			"target":34962
		},
		{
			"buffer":0,
			"byteLength":48,
			"byteOffset":255396,
			"target":34962
		},
		{
			"buffer":0,
			"byteLength":32,
			"byteOffset":255444,
			"target":34962
		},
		{
			"buffer":0,
			"byteLength":1176,
			"byteOffset":255476,
			"target":34962
		},
		{
			"buffer":0,
			"byteLength":1176,
			"byteOffset":256652,
			"target":34962
		},
		{
			"buffer":0,
			"byteLength":784,
			"byteOffset":257828,
			"target":34962
		},
		{
			"buffer":0,
			"byteLength":564,
			"byteOffset":258612,
			"target":34963
		},
		{
			"buffer":0,
			"byteLength":1008,
			"byteOffset":259176,
			"target":34962
		},
		{
			"buffer":0,
			"byteLength":1008,
			"byteOffset":260184,
			"target":34962
		},
		{
			"buffer":0,
			"byteLength":672,
			"byteOffset":261192,
			"target":34962
		},
		{
			"buffer":0,
			"byteLength":468,
			"byteOffset":261864,
			"target":34963
		},
		{
			"buffer":0,
			"byteLength":10644,
			"byteOffset":262332,
			"target":34962
		},
		{
			"buffer":0,
			"byteLength":10644,
			"byteOffset":272976,
			"target":34962
		},
		{
			"buffer":0,
			"byteLength":7096,
			"byteOffset":283620,
			"target":34962
		},
		{
			"buffer":0,
			"byteLength":4620,
			"byteOffset":290716,
			"target":34963
		},
		{
			"buffer":0,
			"byteLength":36132,
			"byteOffset":295336,
			"target":34962
		},
		{
			"buffer":0,
			"byteLength":36132,
			"byteOffset":331468,
			"target":34962
		},
		{
			"buffer":0,
			"byteLength":24088,
			"byteOffset":367600,
			"target":34962
		},
		{
			"buffer":0,
			"byteLength":16740,
			"byteOffset":391688,
			"target":34963
		},
		{
			"buffer":0,
			"byteLength":4092,
			"byteOffset":408428,
			"target":34962
		},
		{
			"buffer":0,
			"byteLength":4092,
			"byteOffset":412520,
			"target":34962
		},
		{
			"buffer":0,
			"byteLength":2728,
			"byteOffset":416612,
			"target":34962
		},
		{
			"buffer":0,
			"byteLength":1428,
			"byteOffset":419340,
			"target":34963
		},
		{
			"buffer":0,
			"byteLength":288,
			"byteOffset":420768,
			"target":34962
		},
		{
			"buffer":0,
			"byteLength":288,
			"byteOffset":421056,
			"target":34962
		},
		{
			"buffer":0,
			"byteLength":192,
			"byteOffset":421344,
			"target":34962
		},
		{
			"buffer":0,
			"byteLength":132,
			"byteOffset":421536,
			"target":34963
		},
		{
			"buffer":0,
			"byteLength":48,
			"byteOffset":421668,
			"target":34962
		},
		{
			"buffer":0,
			"byteLength":48,
			"byteOffset":421716,
			"target":34962
		},
		{
			"buffer":0,
			"byteLength":32,
			"byteOffset":421764,
			"target":34962
		},
		{
			"buffer":0,
			"byteLength":400,
			"byteOffset":421796
		},
		{
			"buffer":0,
			"byteLength":1600,
			"byteOffset":422196
		},
		{
			"buffer":0,
			"byteLength":1600,
			"byteOffset":423796
		},
		{
			"buffer":0,
			"byteLength":1600,
			"byteOffset":425396
		},
		{
			"buffer":0,
			"byteLength":1600,
			"byteOffset":426996
		},
		{
			"buffer":0,
			"byteLength":1600,
			"byteOffset":428596
		}
	],
	"samplers":[
		{
			"magFilter":9729,
			"minFilter":9987
		}
	],
	"buffers":[
		{
			"byteLength":430196,
			"uri":"RecordPlayer.bin"
		}
	]
}
